<?xml version="1.0" encoding="utf-8"?>
<!-- Generator: Adobe Illustrator 19.0.0, SVG Export Plug-In . SVG Version: 6.00 Build 0)  -->
<svg version="1.1" id="Layer_1" xmlns="http://www.w3.org/2000/svg" xmlns:xlink="http://www.w3.org/1999/xlink" x="0px" y="0px"
	 viewBox="0 0 96 96" style="enable-background:new 0 0 96 96;" xml:space="preserve">
<style type="text/css">
	.st0{fill:#76C2AF;}
	.st1{fill:#65A192;}
	.st2{fill:#FFFFFF;}
</style>
<g id="XMLID_1_">
	<path id="XMLID_3_" class="st0" d="M48,15.5c17.9,0,32.5,14.6,32.5,32.5S65.9,80.5,48,80.5c-17.9,0-32.5-14.6-32.5-32.5
		S30.1,15.5,48,15.5"/>
	<path id="XMLID_4_" class="st1" d="M59.7,32.7c-0.2,0-0.4,0-0.6,0.1l-19.5,3.7c-1.3,0.4-1.8,1.7-1.8,2.8v13.2c0,3-2.7,4.5-3.6,4.6
		h-0.1c-0.1,0-0.2,0-0.2,0c-0.9,0.2-1.9,0.6-2.7,1.2c-2.5,2-3.3,5.3-1.6,7.4c0.9,1.1,2.2,1.7,3.6,1.7c1.3,0,2.7-0.5,3.9-1.4
		c1-0.8,2.8-2.9,2.8-7.3V45.2l19.3-3.7V50c0,3-2.4,3.8-3.3,3.9c-0.1,0-0.1,0-0.2,0h-0.1c-1,0.2-1.9,0.6-2.8,1.2
		c-2.5,1.9-3.3,5.2-1.6,7.3c0.9,1.1,2.2,1.7,3.6,1.7c1.3,0,2.7-0.5,3.9-1.4c1.3-1,2.5-2.8,2.5-5.8V34.3
		C61.3,33.3,60.6,32.7,59.7,32.7"/>
	<path id="XMLID_5_" class="st2" d="M29.6,63.6c1.6,2.1,5,2.2,7.5,0.3c1-0.8,2.8-2.9,2.8-7.3V43.1l19.3-3.7V48c0,3-2.4,3.8-3.3,3.9
		c-0.1,0-0.1,0-0.2,0h-0.1c-1,0.2-1.9,0.6-2.8,1.2c-2.5,1.9-3.3,5.2-1.6,7.3c1.6,2.1,5,2.2,7.5,0.3c1.3-1,2.5-2.8,2.5-5.8V32.3
		c0-1.2-1-1.8-2.1-1.5l-19.5,3.7c-1.3,0.4-1.8,1.7-1.8,2.8v13.2c0,3-2.7,4.5-3.6,4.6h-0.1c-0.1,0-0.2,0-0.2,0
		c-0.9,0.2-1.9,0.6-2.7,1.2C28.7,58.3,28,61.5,29.6,63.6z"/>
</g>
</svg>
